<?xml version="1.0" encoding="UTF-8"?>
<svg version="1.1" viewBox="0 0 1400 1400" width="350" height="350" xmlns="http://www.w3.org/2000/svg">
<path transform="translate(0)" d="m0 0h1400v1400h-1400z" fill="#FDFDFD"/>
<path transform="translate(438,347)" d="m0 0h1v7l-2 15-1 15v26l3 26 6 23 5 11 9 16 1 3 2 1-9-24-1-4v-9l4-7 3-3v-5l-2-5v-13l1-7 1-6 6-13 3 1 3 12 6-1 3 5 4 6 1 7-1 3 13-3 11-1 7 2-3 3-11 4-9 2v2l9 3 7-1 1-5 11-3 23-1 7 2v3l-7 1-3 8-2 3-17 3-25 5-2 2 3 3 17-3 14-3h7l7 2h2l-1-8 15-2v3l-6 8-4 3h-8l-9-2 3 7v5l-3 1-7-2 2 8-9-1-23-5-15-3-8-11 2-4 1-1v-6l-3 1-10 13 5 2 7 10 1 4 8-1v4l-3 3v7l5 5 26 20 16 11 18 13 22 15 16 12 6 5 5 13 2 11 2 1 7-1h74v-90l1-5-6-5-2-5v-3h-43v7l-2 2-5-3-2-5-2-1-1 8-4 1-5-8h-16l-9 2 1 8v65l-2-3-2-20-1-17-1-7v-9l-3-10-6 4-11 12-4 6 5 12 1 7-1 2-5-1-5-8-4-10-9-13-14-12-16-11 1-2 16 8 15 10 4 3h6l12-9 16-16 6-4 29-3 12 3 2 2v4l47 1 3-9 5-7 12-6 12-3 16-8 6-5 4 4 2 5-9 6-11 8-1 1 6-1 15-7 9-2 9 4 6 8-1 7-2 4h18l3-6 10-2h17l15 3 8 6 12 11 11 10 5 2 13-8 11-7 14-7h2l-2 4-11 6-13 11-10 10-8 16-4 9-5 1-2-2 1-7 6-14-4-2-10-12-4-4-4-1-2 5-1 2-1 24-2 29-3-1v-60l1-5-6-3-5-1h-13l-5 8-4 1-1-1v-10l-4 4-4 7-3-1v-9l-51 1-1 2h-8l-4-2h-2l-2 6 1-1h9l6 1 1 101h83l4-17 4-8 7-6 13-9 16-11 18-13 11-8 17-12 12-9 9-6 5-5 2-5-4-6v-4h8l2-6 5-6 4-3v-4l-6-4-5-6v-2h-2l3 15-7 8-5 3-14 2-15 4-13 1 1-5 1-4-5 2h-6l1-4 2-6-4-2v-3l4-1 13 2 20 4h4v-5l-10-2-23-4-9-2-8-13-6 1 1-3 12-2h12l15 3 3 2 1 4 7 1 7-3-1-3-17-4-4-4 2-1h16l12 2 1-9 3-4 2-5 2-2 6-2 2-4 2-7 3 2 5 12 1 7 1 6 1 1v5l-1 1-1 11-2 6 4 1 4 7v13l-7 19-2 5h2l2-5 8-16 5-12 6-26 2-17v-37l-4-26v-3l3 1 12 32 7 16 11 15-2 8-11 20-5 10-3 7 5-5 10-13 11-14 13-18 12-20 11-19 7-13h3l-1 7-7 16-12 22-13 21-10 14-9 13-14 18-13 15-9 10-6 9-1 8 4 3 8 3 3 5-1 8-9 11-11 9-12 7-6-1-1-7 5-5 6-4 5-4 6-4 3-4-14-7-5-6v-2l-4 3-4 10-5 13-1 20 6 8 7 8 10 4 10-2 13-3h9l3 2v2l-13 4-10 4h-2l4 5 6 5 9 11 5 11 6 21 4 11 4 6 6 4h11l5-3 1-5-4-10-8-17-2-7v-14l5-8 8-4h10l7 4 4 6 1 9-3 8-5 5-6-1-4-7 6-5-1-6-3-2-7 1-1 6 3 12 7 9 7 10 3 7v12l-5 10-7 6-6 3-13 1-10-2-16-8-3-4-3-16-3-15-5-15-9-15-4-2 5 13 6 15 4 15 6 38 2 5 17 9 2 2-1 7-4 10-6 26v6l4 4 4 3v3l-10-1-13-4-11-4-14-1-1-5h-11l-1-2 3-5 4-3 6-1 9 2 11 4h3l7-16 4-8v-4l-14-8-17-13-8-7-6-7-7-11-5-12-1-10 3-9 6-13 1-3v-9l-6-9-10-10-9-12-5-8 1-5 3-8-8 4-2 3h-8l-4-1-14-1 4 8 10 14 9 10 11 10 16 9 2 3-3 1-27 2-18 2 3 10 7 10 8 8 7 8 14 15 4 5-1 4-20 13-9 7-1 7 4 2 1 4h-5l-9-4-16-7-3-1h-8l-2 1h-8l2-7-5 1-7 2-2-3 4-6 7-3h8l13 5 11 1 13-4 9-9v-6l-6-10-12-13-9-11-5-10-1-9 5-10 8-3 5-1h11v-3l-4-2-7-8-10-14-8-13-6 1-15 8-1 2 9 3 3 3v3l-2 1h-15l-2 8v10l1 2 12 4v4l-7 1 4 4 4 3-2 4-5 1-10-2 1 8h-96v121l-9 5-7 3-7-1-13-6-1-1-1-17v-104h-76l-16-1-2-1 1-7-6 2h-10l-2-1 1-4 8-3 1-2-8-2-2-3 9-4 5-2 1-2v-9l-2-7-8-1h-8l-1-1v-5l10-4-2-4-14-6h-6l-9 15-11 15-7 7-1 2h11l10 2 6 5 2 4v12l-8 13-8 10-10 10-5 7-1 3v7l1 4 4 2 9 5 7 2h7l9-3 8-3h10l5 3 5 6-1 3-13-1 1 4-1 1-16-1-14 4-15 8h-5l2-5 5-3-1-3-10-8-11-8-8-5-2-2 1-5 7-9 6-5 7-8 11-11 7-10 4-11-6-1-17-1-4-1-20-1-2-1 1-3 14-7 11-9 6-5 8-10 11-17v-2h-12l-7 2h-5l-9-7-2-1 5 10-2 5-9 13-8 10h-2l-2 4h-2l-2 4-4 7v8l9 19 1 13-3 10-6 11-8 10-9 9-9 7-10 7-11 7h-2l6 16 7 14 12-6 10-2 8 2 3 3 2 7 9 6 11 8v-9l2-14 1-5 3 3 7 13 7 11 1 5-5 1-10-16-1 21-5-2-10-8-2-1 2 7 5 8-1 4-5-1-10-23-3-7v-2h-9v5l-3 1-8-1-12 3-18 7h-6l-1-4 8-5-3-20-5-17-4-8v-5l8-5 12-6 1-2 2-17 6-31 7-21 5-11-1-3-6 8-8 16-4 15-3 20-4 7-8 5-12 4-5 1h-9l-11-4-8-8-4-10v-9l3-9 5-8 5-5 5-6 2-6v-7l-2-4-6-1-4 3v5l5 3 1 4-4 5-3 1-6-4-3-4-1-4v-9l4-6 5-4 3-1h8l9 4 4 5 1 3v16l-4 11-9 18v6l2 4 2 1h12l6-4 6-10 9-30 6-11 9-11 7-6v-2l-16-6-7-2-1-3 2-1h10l15 4h13l10-9 6-7 2-6v-12l-2-9-9-22-8 8-10 6-2 1 1 4 12 9 6 4 5 5-1 4-3 2-8-1-19-14-8-9-2-4v-8l8-5 7-4v-8l-5-6-4-6-9-9-8-10-13-16-7-10-13-18-14-23-9-16-8-16-5-12 1-4 5 5 12 23 15 24 11 16 9 12 14 18 3 2v2h2l-8-17-8-14-5-11 3-5 4-5 10-19 8-21 5-15z" fill="#050405"/>
<path transform="translate(955,347)" d="m0 0 3 1 12 32 7 16 11 15-2 8-11 20-5 10-3 7 5-5 10-13 11-14 13-18 12-20 11-19 7-13h3l-1 7-7 16-12 22-13 21-10 14-9 13-14 18-13 15-9 10-6 9-1 8 4 3 8 3 3 5-1 8-9 11-11 9-12 7-6-1-1-7 5-5 6-4 5-4 6-4 3-4-14-7-5-6v-2l-4 3-4 10-5 13-1 20 6 8 7 8 10 4 10-2 13-3h9l3 2v2l-13 4-10 4h-2l4 5 6 5 9 11 5 11 6 21 4 11 4 6 6 4h11l5-3 1-5-4-10-8-17-2-7v-14l5-8 8-4h10l7 4 4 6 1 9-3 8-5 5-6-1-4-7 6-5-1-6-3-2-7 1-1 6 3 12 7 9 7 10 3 7v12l-5 10-7 6-6 3-13 1-10-2-16-8-3-4-3-16-3-15-5-15-9-15-4-2 5 13 6 15 4 15 6 38 2 5 17 9 2 2-1 7-4 10-6 26v6l4 4 4 3v3l-10-1-13-4-11-4-14-1-1-5h-11l-1-2 3-5 4-3 6-1 9 2 11 4h3l7-16 4-8v-4l-14-8-17-13-8-7-6-7-7-11-5-12-1-10 3-9 6-13 1-3v-9l-6-9-10-10-9-12-5-8 1-5 3-8-8 4-2 3h-8l-4-1-14-1 4 8 10 14 9 10 11 10 16 9 2 3-3 1-27 2-18 2 3 10 7 10 8 8 7 8 14 15 4 5-1 4-20 13-9 7-1 7 4 2 1 4h-5l-9-4-16-7-3-1h-8l-2 1h-8l2-7-5 1-7 2-2-3 4-6 7-3h8l13 5 11 1 13-4 9-9v-6l-6-10-12-13-9-11-5-10-1-9 5-10 8-3 5-1h11v-3l-4-2-7-8-10-14-8-13-6 1-15 8-1 2 9 3 3 3v3l-2 1h-15l-2 8v10l1 2 12 4v4l-7 1 4 4 4 3-2 4-5 1-11-3-6-7-4-13v-9l4-17 4-8 7-6 13-9 16-11 18-13 11-8 17-12 12-9 9-6 5-5 2-5-4-6v-4h8l2-6 5-6 4-3v-4l-6-4-5-6v-2h-2l3 15-7 8-5 3-14 2-15 4-13 1 1-5 1-4-5 2h-6l1-4 2-6-4-2v-3l4-1 13 2 20 4h4v-5l-10-2-23-4-9-2-8-13-6 1 1-3 12-2h12l15 3 3 2 1 4 7 1 7-3-1-3-17-4-4-4 2-1h16l12 2 1-9 3-4 2-5 2-2 6-2 2-4 2-7 3 2 5 12 1 7 1 6 1 1v5l-1 1-1 11-2 6 4 1 4 7v13l-7 19-2 5h2l2-5 8-16 5-12 6-26 2-17v-37l-4-26z" fill="#050405"/>
<path transform="translate(725,442)" d="m0 0 4 4 2 5-9 6-11 8-1 1 6-1 15-7 9-2 9 4 6 8-1 7-2 4h18l3-6 10-2h17l15 3 8 6 12 11 11 10 5 2 13-8 11-7 14-7h2l-2 4-11 6-13 11-10 10-8 16-4 9-5 1-2-2 1-7 6-14-4-2-10-12-4-4-4-1-2 5-1 2-1 24-2 29-3-1v-60l1-5-6-3-5-1h-13l-5 8-4 1-1-1v-10l-4 4-4 7-3-1v-9l-51 1-1 2h-8l-4-2h-2l-2 6 1-1h9l6 1 1 101 83 1 3 16 4 8 5 5v8h-96v121l-9 5-7 3-7-1-13-6-1-1-1-17v-104h-76l-16-1-2-1 1-8 7-8 2-9 1-10 9-1h74v-90l1-5-6-5-2-5v-3h-43v7l-2 2-5-3-2-5-2-1-1 8-4 1-5-8h-16l-9 2 1 8v65l-2-3-2-20-1-17-1-7v-9l-3-10-6 4-11 12-4 6 5 12 1 7-1 2-5-1-5-8-4-10-9-13-14-12-16-11 1-2 16 8 15 10 4 3h6l12-9 16-16 6-4 29-3 12 3 2 2v4l47 1 3-9 5-7 12-6 12-3 16-8z" fill="#F46532"/>
<path transform="translate(725,442)" d="m0 0 4 4 2 5-9 6-11 8-1 1 6-1 15-7 9-2 9 4 6 8-1 7-2 4h18l3-6 10-2h17l15 3 8 6 12 11 11 10 5 2 13-8 11-7 14-7h2l-2 4-11 6-13 11-10 10-8 16-4 9-5 1-2-2 1-7 6-14-4-2-10-12-4-4-4-1-2 5-1 2-1 24-2 29-3-1v-60l1-5-6-3-5-1h-13l-5 8-4 1-1-1v-10l-4 4-4 7-3-1v-9l-51 1-1 2h-8l-4-2h-2l-2 5-7 6-9 3-7-3-5-6-1-6h-43v7l-2 2-5-3-2-5-2-1-1 8-4 1-5-8h-16l-9 2 1 8v65l-2-3-2-20-1-17-1-7v-9l-3-10-6 4-11 12-4 6 5 12 1 7-1 2-5-1-5-8-4-10-9-13-14-12-16-11 1-2 16 8 15 10 4 3h6l12-9 16-16 6-4 29-3 12 3 2 2v4l47 1 3-9 5-7 12-6 12-3 16-8z" fill="#050405"/>
<path transform="translate(978,900)" d="m0 0h14l13 4 9 7 7 9 4 10v13l-3 10-6 8-5 5-5 4-9 4-7 1h-10l-12-3-10-7-7-8-4-9-1-5v-12l3-10 7-10 11-8z" fill="#050405"/>
<path transform="translate(737,900)" d="m0 0h12l13 4 10 8 6 8 4 11v15l-4 9-4 6-5 5-7 5-9 3-15 1-12-3-10-6-8-10-4-9-1-5v-8l3-12 6-9 7-7 8-4z" fill="#050405"/>
<path transform="translate(538,1015)" d="m0 0h11l13 4 9 6 7 8 4 9 1 5v13l-4 10-7 9-8 6-10 4-5 1h-12l-13-4-9-7-6-8-4-10-1-4v-8l3-12 7-11 10-7 8-3z" fill="#050405"/>
<path transform="translate(445,1015)" d="m0 0h14l12 3 9 6 7 8 5 10 1 4v13l-3 9-8 11-10 7-8 3-7 1h-9l-12-3-8-6-8-8-4-7-2-10 1-13 4-10 9-10 10-6z" fill="#050405"/>
<path transform="translate(763,1015)" d="m0 0h12l12 4 9 6 7 9 4 10 1 9-2 12-4 8-6 7-9 6-13 4h-11l-9-2-11-6-7-7-5-10-2-8v-10l2-8 4-8 7-8 11-6z" fill="#050405"/>
<path transform="translate(565,1156)" d="m0 0h266l-3 9-4 7-67 1h-192z" fill="#F46532"/>
<path transform="translate(873,900)" d="m0 0 30 1 10 3 9 7 8 9 5 12v12l-4 11-6 8-10 7-8 3-6 1h-29l1-7v-58l-1-8z" fill="#050405"/>
<path transform="translate(821,1016)" d="m0 0h25l9 2 7 5 5 7 1 3v10l-4 7-9 7-2 2 9 11 12 13 5 6-3 1h-11l-8-6-9-9-8-10-4-2 2 18 1 8-18 1-1-2 1-7 1-21v-14z" fill="#050405"/>
<path transform="translate(1022,1016)" d="m0 0h26l10 3 9 8 3 8-1 9-4 6-7 6-4 1 4 7 11 12 9 10 1 4h-12l-5-3-15-15-7-9h-2l1 16 1 10h-18l-1-4 2-8v-50z" fill="#050405"/>
<path transform="translate(718,403)" d="m0 0 6 1v19l-1 11-9 10-10 6-16 7h-9l-8-6-7-9-2-6-1-9 2-12 5-6 8-5z" fill="#050405"/>
<path transform="translate(787,742)" d="m0 0h23l15 3 20 7 17 7 19 10 16 8 33 17 20 8 15 4h17l10-5 6-9 3-9 2 2-3 14-6 8-10 5-5 1h-10l-16-3-22-8-21-10-23-13-24-12-25-10-23-6-9-2 4 7 2 7-3 9-5 5-8 4h-5l-5-5-5-4-13-9-6-5-3-4 1-4 8-4 12-3z" fill="#050405"/>
<path transform="translate(589,742)" d="m0 0h19l17 3 12 6-1 5-8 7-12 8-10 9-1 1-7-1-9-6-4-8v-8l2-4 3-3 1-2-26 6-17 6-23 10-25 13-22 12-26 11-17 5-6 1h-12l-10-3-8-7-5-11-1-10 3 4 6 11 4 5 8 4h18l17-5 25-11 38-20 19-9 10-5 15-6 20-6z" fill="#050405"/>
<path transform="translate(790,900)" d="m0 0h11l7 2 8 9 8 11 9 12 11 15 1-7-1-30-2-11h16l-1 10v63h-13l-4-5-9-13-8-10-8-11-7-9 1 36 2 12h-17l2-15v-47l-7-11z" fill="#050405"/>
<path transform="translate(583,633)" d="m0 0 2 1 6 23 7 18 12 22 9 12 9 10 7 8 14 12 24 16 21 11h6l16-7 19-12 17-13 13-12 7-7 10-13 9-15 8-16 5-12 6-23 2-1-1 9-8 29-6 15-7 13-8 12-11 13-12 14-10 9-15 12-19 12-14 8-8-1-15-8-19-13-13-11-11-9-9-10-11-14-10-14-8-16-7-18-6-22z" fill="#050405"/>
<path transform="translate(1033,901)" d="m0 0h18l8 11 16 21 10 14 2 2v-16l-1-26-1-6h16l-2 19v44l1 10h-13l-4-5-10-14-14-18-7-10-2-1 2 41v7l-3 1-11-1-1-3 1-5 1-20v-33l-7-10z" fill="#050405"/>
<path transform="translate(342,1016)" d="m0 0h18l-1 7-1 3-1 21 27-1v-15l-2-15h20l-2 12v51l2 6v4h-20l2-14 1-18-27 1v22l2 9h-20l2-17v-36l-1-19z" fill="#050405"/>
<path transform="translate(580,341)" d="m0 0 6 1 9 5 4 6 3 7 3 1 3-5 7-3h4v2h-2l-2 5-2 4 1 5 4 8 10 8 15 8 11 5v1l-35 6-12 4-12 6-3 1-2 4-4 2-1-1v-8l4-8-3 1h-9l-12 3-10 6h-4l2-7 9-8 10-3-2-5-2-2 1-4 6 1 3 4 13 3 6 1h28l-3-2-18-8-12-7-10-5-15-1-3-2 9-4 8-1 12 2-4-10-5-9z" fill="#050405"/>
<path transform="translate(811,341)" d="m0 0h4l-2 5-6 9-3 8v4l7-1 8-1 7 2 3 4-15 2-12 5-14 9-13 5-6 2 1 1h31l15-4 8-5h4l-1 5-3 6 11 4 10 11v3l-6-1-7-4-8-3-13-1-5 1 2 4 2 3v8l-4-2-6-5-14-7-19-5-24-4v-3l11-4 13-7 7-5 1-2h2l2-4 3-5-1-8-4-6v-3l5 1 5 3 3 4v2l4-1 3-10 8-7z" fill="#050405"/>
<path transform="translate(937,1015)" d="m0 0h16l15 2 1 3v14l-4-1-6-4-11-3h-13l-9 4-6 7-3 10v10l4 9 6 7 6 4 10 2h10l3-1v-11l-2-17h18l1 4-1 2-1 30-8 3-18 1-15-2-10-4-10-8-6-10-2-6v-14l5-12 9-10 10-6 5-2z" fill="#050405"/>
<path transform="translate(761,1026)" d="m0 0h12l9 4 8 9 3 7 1 5v8l-3 8-7 8-7 4h-11l-9-3-7-5-6-9-2-8v-8l4-10 8-7z" fill="#FDFBFA"/>
<path transform="translate(446,1026)" d="m0 0h12l8 3 7 6 5 10 1 5v11l-3 7-4 5-10 6h-12l-8-3-9-8-4-7-1-4v-12l3-8 5-6z" fill="#FDFBFA"/>
<path transform="translate(978,911)" d="m0 0h12l10 4 7 8 3 8 1 12-2 8-5 7-9 5-4 1-13-1-10-6-6-9-2-5v-14l5-10 7-6z" fill="#FDFBFA"/>
<path transform="translate(536,1026)" d="m0 0h12l8 3 5 5 4 5 4 11v10l-4 9-4 5-7 4-4 1h-9l-9-3-6-4-6-9-2-6v-13l4-8 5-5 6-4z" fill="#FDFBFA"/>
<path transform="translate(735,911)" d="m0 0h12l8 3 6 5 5 9 2 8v7l-3 10-8 8-8 3h-10l-8-3-8-7-5-9-1-4v-10l3-9 8-8z" fill="#FDFBFA"/>
<path transform="translate(1009,425)" d="m0 0h2v27l-4 26-6 20-1 5 19 7 18 9-1 3-22-6-17-4h-2l-2 6-6 12-12 16-8 8-8 6-12 5-7 1-5-4 1-4 20-13 10-9 9-11 9-13v-2l-21-3-2-5 2-5 4-1 23 3 9-25 6-24z" fill="#050405"/>
<path transform="translate(383,426)" d="m0 0h3l7 37 6 20 6 17 21-4 4 1 4 6v3l-9 2-14 1 4 8 10 14 7 8 13 10 10 6 5 5-2 4-4 2-8-1-8-4-11-9-13-13-11-19-2-8h-7l-21 6-10 3-5-1 3-3 15-7 18-7h2l-8-27-4-24z" fill="#050405"/>
<path transform="translate(586,819)" d="m0 0 3 1 7 8 9 7 8 2h170l11-2 9-6 7-9h2l-3 9-6 8-11 7-3 1-12 1h-153l-13-1-9-4-8-7-6-10z" fill="#050405"/>
<path transform="translate(1167,1015)" d="m0 0 13 1 8 2v13l-13-5h-10l-5 3-1 7 5 5 19 10 7 8 2 10-4 10-7 7-8 3h-17l-9-2-2-2v-11l5 1 7 3 5 1h10l4-3 1-8-5-6-16-8-8-7-3-7v-8l4-8 7-6 5-2z" fill="#050405"/>
<path transform="translate(233,1015)" d="m0 0 18 2 1 1 1 13-14-5h-11l-5 5v6l10 7 15 8 6 7 1 2v11l-4 8-8 7-6 2h-18l-9-3-1-2v-10l2-1 10 5 5 1h8l5-3 2-7-3-5-16-9-9-7-4-8v-7l3-7 6-7 7-3z" fill="#050405"/>
<path transform="translate(299,1015)" d="m0 0h13l13 3 1 5-1 11-5-4-10-4h-12l-8 3-6 7-4 10v13l4 10 6 7 6 3 8 1 10-2 12-6v10l-2 5-14 3h-11l-9-2-10-5-9-9-5-10-1-4v-11l3-12 7-10 8-7 10-4z" fill="#050405"/>
<path transform="translate(325,901)" d="m0 0h30l2 2v14l-5-2-6-3-4-1h-14l-8 4-5 6-3 8v16l6 12 7 6 3 1h14l9-4 5-4h2l-1 15-2 2-13 2h-13l-8-2-9-5-9-9-5-10-1-4v-14l5-13 10-11 10-5z" fill="#050405"/>
<path transform="translate(739,229)" d="m0 0h2l-2 9-8 21-8 16-11 20-8 12-14 19-9 11-2 4 1 5 11 10 2 5v11l-2 10-3 1h-8l-1-1v-7l1-2v-7l-5-8-10-8-3-4 2-6 7-10 13-14 9-11 11-14 10-15 9-15 11-21 4-10z" fill="#050405"/>
<path transform="translate(470,900)" d="m0 0 17 1 6 9 8 13 1 2h2l12-21 2-4 14 1-2 5-10 15-8 11-3 7v25l1 3v7l-5 1-13-1-1-3 2-12v-19l-7-14-13-19-3-4z" fill="#050405"/>
<path transform="translate(678,1016)" d="m0 0h43l-1 7-2 4-24-1v21h22l1 3-4 8-18-1 1 26 2 6h-20l-1-2 2-5v-52z" fill="#050405"/>
<path transform="translate(405,901)" d="m0 0h57l-3 11-4 1-4-1h-13v45l2 17h-19l2-17 1-46-15 1-4 2h-4l1-5z" fill="#050405"/>
<path transform="translate(655,900)" d="m0 0h14l1 4-1 7-1 53 23-2 9-2-1 5-3 9h-45l1-6v-62l-1-5z" fill="#050405"/>
<path transform="translate(564,932)" d="m0 0h11l8 4 6 7 3 7v7l-4 8-7 7-9 3-8-1-8-4-6-8-2-5v-8l5-10 6-5z" fill="#050405"/>
<path transform="translate(596,1016)" d="m0 0h19l-1 8-1 34v21l19-1 12-3 1 2-3 10-3 2h-44l2-10v-54z" fill="#050405"/>
<path transform="translate(1088,1016)" d="m0 0h19l-1 7-2 57 20-2 9-3h3l-2 12-1 2h-45l1-8v-58z" fill="#050405"/>
<path transform="translate(889,911)" d="m0 0h9l12 6 6 7 4 8 1 4v9l-3 6-8 8-8 4-12 2-1-1-1-51z" fill="#FDFBFB"/>
<path transform="translate(987,1016)" d="m0 0h20l-2 10v55l1 9-19-1 1-8v-58z" fill="#050405"/>
<path transform="translate(373,901)" d="m0 0h19l-2 9v56l2 5v3h-19v-67l-1-5z" fill="#050405"/>
<path transform="translate(723,291)" d="m0 0h2l1 14-3 29-2 9 10 3 17 8v4l-6-1-10-4-12-1-11 28-1 2h-10l1-5 8-18 4-10-17-3-2-2v-5l1-1 14 1 7 1 3-17 3-16 2-15z" fill="#050405"/>
<path transform="translate(459,752)" d="m0 0h7l6 3 5 6 2 4v9l-5 8-8 4-6 1-10-4-6-12 1-8 7-8z" fill="#050405"/>
<path transform="translate(882,728)" d="m0 0h9l6 3 6 7 1 3v7l-3 7-6 5-5 2-9-1-6-4-5-6-1-3v-7l4-8 6-4z" fill="#050405"/>
<path transform="translate(529,319)" d="m0 0 10 3 21-3h8l10 4 8 6 6 6v2l-10-3h-12l-4 1v7l2 7-1 2-5-1-4-6-2-5-2-1-9-1-10-6-7-7-1-4z" fill="#050405"/>
<path transform="translate(614,794)" d="m0 0h10l9 2 8 9 2 5-1 7-6 8-8 4h-14l-1-34z" fill="#050405"/>
<path transform="translate(829,319)" d="m0 0 11 1 12 2 11-2h5l-1 4-9 9-7 4-11 1-3 1v7l-5 4h-4l1-6 2-7-4-2-7-2-7 1-8 3 2-5 9-8 8-4z" fill="#050405"/>
<path transform="translate(420,765)" d="m0 0h8l6 3 5 6 2 5v8l-7 8-6 3-9 1-3-4-4-24v-4z" fill="#050405"/>
<path transform="translate(662,404)" d="m0 0v3l-16 14-5 6h-2l-3 9-2 7-1 8h-4l-2-8-1-11-11 7-5 5-4-1 2-6 9-11 11-9 16-8 12-4z" fill="#050405"/>
<path transform="translate(732,404)" d="m0 0 7 1 15 5 18 10 13 13 5 9v3l-5-2-8-7-8-4-1 12-2 7h-3l-3-14-6-11-11-12-11-8z" fill="#050405"/>
<path transform="translate(564,939)" d="m0 0h10l6 4 4 6v10l-4 6-5 3h-8l-6-3-4-5-1-2v-11l6-7z" fill="#FDFBFA"/>
<path transform="translate(1052,533)" d="m0 0h3l-1 5-6 6-6 15-6 9-3 3h-3v-6l1-4-3-1-1 3-10 7-7 7-3 5-6 3h-5l4-7 11-12 13-8 3-1 1-2-5-2-3-3v-2l12 1 10-8 8-7z" fill="#050405"/>
<path transform="translate(550,360)" d="m0 0h12l-2 4-6 4-3 4v8l3 5 1 4-4 1-7-3-6 1-3 3-3 1h-13l-3-1 1-3 11-8 6-7 7-8 6-4z" fill="#050405"/>
<path transform="translate(838,359)" d="m0 0 8 1 7 4 9 9 8 10 9 6v2l-9 2h-6l-4-2-4-5-5 1-5 3-5-1v-4l5-5-1-9-4-4-8-5 1-2z" fill="#060405"/>
<path transform="translate(341,533)" d="m0 0 6 2 10 10 4 3 6 1 8-1v3l-6 4 3 3 11 8 7 6 8 10-1 3-8-3-12-13-10-8-3-2 1 12-4-1-3-5-4-4-3-7-3-9-7-7-1-4z" fill="#050405"/>
<path transform="translate(673,794)" d="m0 0h11l8 4 2 4v6l-6 6 1 4 7 7 2 4-4 1-6-4-8-9-2-1 1 13-4 1-3-1v-34z" fill="#050405"/>
<path transform="translate(629,502)" d="m0 0 5 1 1 11 1 49 6 2 2 1-1 5-7-3-1 17h-6l-2-17-7-1-1-5h10z" fill="#F46532"/>
<path transform="translate(599,933)" d="m0 0h24l-1 5-1 1h-13v11h9l4 1-1 5h-12l1 18h-10z" fill="#050405"/>
<path transform="translate(556,706)" d="m0 0h5l3 9 4 13 2 9-4 1-14-9-5-4-4-1 7 17-1 4-4-1-8-23-3-5 1-3 7 1 14 10 7 3-8-18z" fill="#050405"/>
<path transform="translate(738,794)" d="m0 0h14l3 1 1 6h-4l-5-2-10 1-4 5-1 2v8l4 6 6 3 7-1 1-2 1-10 5-1 1 9-1 8-9 3-12-2-8-7-3-7 1-8 4-6 6-5z" fill="#050405"/>
<path transform="translate(843,708)" d="m0 0 4 1 8 24v2h2l3-11 5-9h2v8l-8 18-2 7-5-1-2-6-4-15-4-4-4 18h-5l-1-3 8-20z" fill="#050405"/>
<path transform="translate(460,757)" d="m0 0 6 1 5 5 2 3v8l-5 6-2 1h-8l-7-6-2-7 2-5 6-5z" fill="#FDF8F6"/>
<path transform="translate(882,733)" d="m0 0h8l6 4 2 4v8l-5 6-4 2-7-1-5-5-2-4v-6l4-6z" fill="#FDF8F6"/>
<path transform="translate(769,794)" d="m0 0h19l1 3-1 2-12 1-1 9h12v5l-11 1v9h9l4-1 2 3-5 3h-16l-1-1z" fill="#050405"/>
<path transform="translate(1039,1025)" d="m0 0 10 3 6 5 1 8-3 5-8 5-6 1-1-1-1-24z" fill="#FDF8F7"/>
<path transform="translate(583,701)" d="m0 0h9l-1 5h-10v10l9-2 3 1v3l-8 3h-3l2 7 3 1 9-2 1 4-3 2-15 2-3-6-4-26z" fill="#050405"/>
<path transform="translate(837,1026)" d="m0 0h7l6 3 5 8-1 7-9 6-6 2-3-2z" fill="#FDF8F6"/>
<path transform="translate(914,744)" d="m0 0 9 1 7 4 1 5-4 1-6-5-5-1 1 6 5 8 1 9-6 4h-7l-8-5-2-4 5-1 2 4 9 1-2-8-5-8 1-6z" fill="#050405"/>
<path transform="translate(1034,385)" d="m0 0 2 2-1 12v22l2 12 2 5v3l-5-1-4-8-2-6-1-7v-14l2-11 4-8z" fill="#050405"/>
<path transform="translate(620,798)" d="m0 0 6 1 8 6 2 3v7l-5 7-8 4-3-1z" fill="#FDF8F7"/>
<path transform="translate(358,458)" d="m0 0 5 2 4 5 4 15 1 17-1 11-2 2-4-1-2-28-4-17z" fill="#050405"/>
<path transform="translate(360,385)" d="m0 0 4 4 4 9v21l-4 17-2 4-5 1 1-7 1-3 1-11z" fill="#050405"/>
<path transform="translate(1034,459)" d="m0 0h4l-1 5-4 10-2 14-1 22-4-1-2-2v-25l4-16z" fill="#050405"/>
<path transform="translate(1020,521)" d="m0 0h3l-1 4-9 8-8 7-9 11-7 10-4 1 1-7 8-13 10-11 9-7z" fill="#050405"/>
<path transform="translate(372,521)" d="m0 0 6 1 9 6 11 10 7 10 6 11-1 3-4-1-9-13-9-11-14-11-2-2z" fill="#050405"/>
<path transform="translate(421,769)" d="m0 0 9 3 5 6 1 5-2 5-7 6-4-1-2-6-2-16z" fill="#FDF8F6"/>
<path transform="translate(736,258)" d="m0 0 2 3 3 21 7 16v3l-5-2-6-9-4-12-1-8 2-10z" fill="#050405"/>
<path transform="translate(653,794)" d="m0 0h6v35l-4 1-3-1v-34z" fill="#050405"/>
<path transform="translate(743,466)" d="m0 0 6 2 2 4-3 7-2 1h-20l2-4 13-9z" fill="#FDF3EF"/>
<path transform="translate(711,794)" d="m0 0 3 1v34h-7v-34z" fill="#050405"/>
<path transform="translate(673,414)" d="m0 0h3v19l4 11v3l-5-1-5-8-2-5v-13l3-5z" fill="#FDF4F1"/>
<path transform="translate(518,720)" d="m0 0 4 1 10 19 4 9-1 3-5 1-12-26-1-6z" fill="#050405"/>
<path transform="translate(340,446)" d="m0 0h15l15 4 8 5 2 2v3l-7-1-11-5-21-5-2-2z" fill="#050405"/>
<path transform="translate(1048,445)" d="m0 0 6 1-1 3-20 5-12 6-4 1-1-2 2-5 10-5z" fill="#050405"/>
<path transform="translate(682,414)" d="m0 0 5 1v12l4 16-1 3-3-1-4-7-3-7v-13z" fill="#FDF4F0"/>
<path transform="translate(693,415)" d="m0 0h6l1 4-1 1 1 11 1 9-4-1-5-9-1-5v-8z" fill="#FCEDE7"/>
<path transform="translate(733,357)" d="m0 0h2l-1 5-10 14-4 6-4-1 5-12 6-8z" fill="#050405"/>
<path transform="translate(837,445)" d="m0 0 14 2v7l6 1-1 2-2 2-9-1-6-7z" fill="#050405"/>
<path transform="translate(741,318)" d="m0 0 3 1-1 6-2 5-2 14-4-1v-11l3-10z" fill="#050405"/>
<path transform="translate(420,561)" d="m0 0h7l2 2-4 3-12 6-5 3h-2l1-4 8-7z" fill="#050405"/>
<path transform="translate(967,560)" d="m0 0 8 1 14 10-1 3-5-1-15-9z" fill="#050405"/>
<path transform="translate(751,306)" d="m0 0h7l-2 3-15 3-6 3h-5l1-4 2-2z" fill="#050405"/>
<path transform="translate(679,799)" d="m0 0 7 1 2 2v6l-5 3-4-1-1-10z" fill="#FDF1ED"/>
<path transform="translate(681,388)" d="m0 0h10l2 10-9-1-3-6z" fill="#050405"/>
<path transform="translate(702,387)" d="m0 0 6 1 4 8v2l-8-1-4-3v-6z" fill="#050405"/>
<path transform="translate(717,388)" d="m0 0h9l2 2-1 7-3 1-4-2-3-5z" fill="#050405"/>
<path transform="translate(669,389)" d="m0 0 5 2 2 2-1 4-6-1z" fill="#050405"/>
</svg>
